<svg width="670" height="50" viewBox="0 0 670 50" fill="none" xmlns="http://www.w3.org/2000/svg">
  <path d="M36.2483 4.194V37H29.6683V15.662L20.8793 37H15.8973L7.06128 15.662V37H0.481282V4.194H7.95428L18.3883 28.587L28.8223 4.194H36.2483ZM66.9587 23.417C66.9587 24.357 66.8961 25.203 66.7707 25.955H47.7357C47.8924 27.835 48.5504 29.3077 49.7097 30.373C50.8691 31.4383 52.2947 31.971 53.9867 31.971C56.4307 31.971 58.1697 30.9213 59.2037 28.822H66.3007C65.5487 31.3287 64.1074 33.3967 61.9767 35.026C59.8461 36.624 57.2297 37.423 54.1277 37.423C51.6211 37.423 49.3651 36.8747 47.3597 35.778C45.3857 34.65 43.8347 33.0677 42.7067 31.031C41.6101 28.9943 41.0617 26.6443 41.0617 23.981C41.0617 21.2863 41.6101 18.9207 42.7067 16.884C43.8034 14.8473 45.3387 13.2807 47.3127 12.184C49.2867 11.0873 51.5584 10.539 54.1277 10.539C56.6031 10.539 58.8121 11.0717 60.7547 12.137C62.7287 13.2023 64.2484 14.722 65.3137 16.696C66.4104 18.6387 66.9587 20.879 66.9587 23.417ZM60.1437 21.537C60.1124 19.845 59.5014 18.4977 58.3107 17.495C57.1201 16.461 55.6631 15.944 53.9397 15.944C52.3104 15.944 50.9317 16.4453 49.8037 17.448C48.7071 18.4193 48.0334 19.7823 47.7827 21.537H60.1437ZM95.9666 23.417C95.9666 24.357 95.9039 25.203 95.7786 25.955H76.7436C76.9002 27.835 77.5582 29.3077 78.7176 30.373C79.8769 31.4383 81.3026 31.971 82.9946 31.971C85.4386 31.971 87.1776 30.9213 88.2116 28.822H95.3086C94.5566 31.3287 93.1152 33.3967 90.9846 35.026C88.8539 36.624 86.2376 37.423 83.1356 37.423C80.6289 37.423 78.3729 36.8747 76.3676 35.778C74.3936 34.65 72.8426 33.0677 71.7146 31.031C70.6179 28.9943 70.0696 26.6443 70.0696 23.981C70.0696 21.2863 70.6179 18.9207 71.7146 16.884C72.8112 14.8473 74.3466 13.2807 76.3206 12.184C78.2946 11.0873 80.5662 10.539 83.1356 10.539C85.6109 10.539 87.8199 11.0717 89.7626 12.137C91.7366 13.2023 93.2562 14.722 94.3216 16.696C95.4182 18.6387 95.9666 20.879 95.9666 23.417ZM89.1516 21.537C89.1202 19.845 88.5092 18.4977 87.3186 17.495C86.1279 16.461 84.6709 15.944 82.9476 15.944C81.3182 15.944 79.9396 16.4453 78.8116 17.448C77.7149 18.4193 77.0412 19.7823 76.7906 21.537H89.1516ZM108.43 16.367V28.963C108.43 29.8403 108.634 30.4827 109.041 30.89C109.48 31.266 110.201 31.454 111.203 31.454H114.258V37H110.122C104.576 37 101.803 34.3053 101.803 28.916V16.367H98.7014V10.962H101.803V4.523H108.43V10.962H114.258V16.367H108.43ZM137.851 16.367V28.963C137.851 29.8403 138.055 30.4827 138.462 30.89C138.901 31.266 139.622 31.454 140.624 31.454H143.679V37H139.543C133.997 37 131.224 34.3053 131.224 28.916V16.367H128.122V10.962H131.224V4.523H137.851V10.962H143.679V16.367H137.851ZM163.076 10.586C165.05 10.586 166.805 11.0247 168.34 11.902C169.875 12.748 171.066 14.017 171.912 15.709C172.789 17.3697 173.228 19.375 173.228 21.725V37H166.648V22.618C166.648 20.55 166.131 18.9677 165.097 17.871C164.063 16.743 162.653 16.179 160.867 16.179C159.05 16.179 157.608 16.743 156.543 17.871C155.509 18.9677 154.992 20.55 154.992 22.618V37H148.412V2.22H154.992V14.205C155.838 13.077 156.966 12.1997 158.376 11.573C159.786 10.915 161.353 10.586 163.076 10.586ZM203.69 23.417C203.69 24.357 203.628 25.203 203.502 25.955H184.467C184.624 27.835 185.282 29.3077 186.441 30.373C187.601 31.4383 189.026 31.971 190.718 31.971C193.162 31.971 194.901 30.9213 195.935 28.822H203.032C202.28 31.3287 200.839 33.3967 198.708 35.026C196.578 36.624 193.961 37.423 190.859 37.423C188.353 37.423 186.097 36.8747 184.091 35.778C182.117 34.65 180.566 33.0677 179.438 31.031C178.342 28.9943 177.793 26.6443 177.793 23.981C177.793 21.2863 178.342 18.9207 179.438 16.884C180.535 14.8473 182.07 13.2807 184.044 12.184C186.018 11.0873 188.29 10.539 190.859 10.539C193.335 10.539 195.544 11.0717 197.486 12.137C199.46 13.2023 200.98 14.722 202.045 16.696C203.142 18.6387 203.69 20.879 203.69 23.417ZM196.875 21.537C196.844 19.845 196.233 18.4977 195.042 17.495C193.852 16.461 192.395 15.944 190.671 15.944C189.042 15.944 187.663 16.4453 186.535 17.448C185.439 18.4193 184.765 19.7823 184.514 21.537H196.875ZM402.247 14.769C403.093 13.5157 404.252 12.4973 405.725 11.714C407.229 10.9307 408.936 10.539 410.848 10.539C413.072 10.539 415.078 11.0873 416.864 12.184C418.681 13.2807 420.107 14.8473 421.141 16.884C422.206 18.8893 422.739 21.2237 422.739 23.887C422.739 26.5503 422.206 28.916 421.141 30.984C420.107 33.0207 418.681 34.603 416.864 35.731C415.078 36.859 413.072 37.423 410.848 37.423C408.905 37.423 407.197 37.047 405.725 36.295C404.283 35.5117 403.124 34.509 402.247 33.287V37H395.667V2.22H402.247V14.769ZM416.018 23.887C416.018 22.3203 415.689 20.973 415.031 19.845C414.404 18.6857 413.558 17.8083 412.493 17.213C411.459 16.6177 410.331 16.32 409.109 16.32C407.918 16.32 406.79 16.6333 405.725 17.26C404.691 17.8553 403.845 18.7327 403.187 19.892C402.56 21.0513 402.247 22.4143 402.247 23.981C402.247 25.5477 402.56 26.9107 403.187 28.07C403.845 29.2293 404.691 30.1223 405.725 30.749C406.79 31.3443 407.918 31.642 409.109 31.642C410.331 31.642 411.459 31.3287 412.493 30.702C413.558 30.0753 414.404 29.1823 415.031 28.023C415.689 26.8637 416.018 25.485 416.018 23.887ZM451.725 23.417C451.725 24.357 451.663 25.203 451.537 25.955H432.502C432.659 27.835 433.317 29.3077 434.476 30.373C435.636 31.4383 437.061 31.971 438.753 31.971C441.197 31.971 442.936 30.9213 443.97 28.822H451.067C450.315 31.3287 448.874 33.3967 446.743 35.026C444.613 36.624 441.996 37.423 438.894 37.423C436.388 37.423 434.132 36.8747 432.126 35.778C430.152 34.65 428.601 33.0677 427.473 31.031C426.377 28.9943 425.828 26.6443 425.828 23.981C425.828 21.2863 426.377 18.9207 427.473 16.884C428.57 14.8473 430.105 13.2807 432.079 12.184C434.053 11.0873 436.325 10.539 438.894 10.539C441.37 10.539 443.579 11.0717 445.521 12.137C447.495 13.2023 449.015 14.722 450.08 16.696C451.177 18.6387 451.725 20.879 451.725 23.417ZM444.91 21.537C444.879 19.845 444.268 18.4977 443.077 17.495C441.887 16.461 440.43 15.944 438.706 15.944C437.077 15.944 435.698 16.4453 434.57 17.448C433.474 18.4193 432.8 19.7823 432.549 21.537H444.91ZM471.192 10.586C473.166 10.586 474.921 11.0247 476.456 11.902C477.991 12.748 479.182 14.017 480.028 15.709C480.905 17.3697 481.344 19.375 481.344 21.725V37H474.764V22.618C474.764 20.55 474.247 18.9677 473.213 17.871C472.179 16.743 470.769 16.179 468.983 16.179C467.166 16.179 465.724 16.743 464.659 17.871C463.625 18.9677 463.108 20.55 463.108 22.618V37H456.528V2.22H463.108V14.205C463.954 13.077 465.082 12.1997 466.492 11.573C467.902 10.915 469.469 10.586 471.192 10.586ZM490.938 7.86C489.779 7.86 488.808 7.49967 488.024 6.779C487.272 6.027 486.896 5.10266 486.896 4.006C486.896 2.90933 487.272 2.00066 488.024 1.28C488.808 0.527998 489.779 0.151998 490.938 0.151998C492.098 0.151998 493.053 0.527998 493.805 1.28C494.589 2.00066 494.98 2.90933 494.98 4.006C494.98 5.10266 494.589 6.027 493.805 6.779C493.053 7.49967 492.098 7.86 490.938 7.86ZM494.181 10.962V37H487.601V10.962H494.181ZM515.111 10.586C518.213 10.586 520.72 11.573 522.631 13.547C524.543 15.4897 525.498 18.2157 525.498 21.725V37H518.918V22.618C518.918 20.55 518.401 18.9677 517.367 17.871C516.333 16.743 514.923 16.179 513.137 16.179C511.32 16.179 509.879 16.743 508.813 17.871C507.779 18.9677 507.262 20.55 507.262 22.618V37H500.682V10.962H507.262V14.205C508.14 13.077 509.252 12.1997 510.599 11.573C511.978 10.915 513.482 10.586 515.111 10.586ZM530.064 23.887C530.064 21.255 530.581 18.9207 531.615 16.884C532.68 14.8473 534.121 13.2807 535.939 12.184C537.756 11.0873 539.777 10.539 542.002 10.539C543.694 10.539 545.307 10.915 546.843 11.667C548.378 12.3877 549.6 13.359 550.509 14.581V2.22H557.183V37H550.509V33.146C549.694 34.4307 548.55 35.4647 547.078 36.248C545.605 37.0313 543.897 37.423 541.955 37.423C539.761 37.423 537.756 36.859 535.939 35.731C534.121 34.603 532.68 33.0207 531.615 30.984C530.581 28.916 530.064 26.5503 530.064 23.887ZM550.556 23.981C550.556 22.383 550.242 21.02 549.616 19.892C548.989 18.7327 548.143 17.8553 547.078 17.26C546.012 16.6333 544.869 16.32 543.647 16.32C542.425 16.32 541.297 16.6177 540.263 17.213C539.229 17.8083 538.383 18.6857 537.725 19.845C537.098 20.973 536.785 22.3203 536.785 23.887C536.785 25.4537 537.098 26.8323 537.725 28.023C538.383 29.1823 539.229 30.0753 540.263 30.702C541.328 31.3287 542.456 31.642 543.647 31.642C544.869 31.642 546.012 31.3443 547.078 30.749C548.143 30.1223 548.989 29.245 549.616 28.117C550.242 26.9577 550.556 25.579 550.556 23.981ZM582.469 16.367V28.963C582.469 29.8403 582.673 30.4827 583.08 30.89C583.519 31.266 584.24 31.454 585.242 31.454H588.297V37H584.161C578.615 37 575.842 34.3053 575.842 28.916V16.367H572.74V10.962H575.842V4.523H582.469V10.962H588.297V16.367H582.469ZM607.694 10.586C609.668 10.586 611.423 11.0247 612.958 11.902C614.493 12.748 615.684 14.017 616.53 15.709C617.407 17.3697 617.846 19.375 617.846 21.725V37H611.266V22.618C611.266 20.55 610.749 18.9677 609.715 17.871C608.681 16.743 607.271 16.179 605.485 16.179C603.668 16.179 602.226 16.743 601.161 17.871C600.127 18.9677 599.61 20.55 599.61 22.618V37H593.03V2.22H599.61V14.205C600.456 13.077 601.584 12.1997 602.994 11.573C604.404 10.915 605.971 10.586 607.694 10.586ZM627.44 7.86C626.281 7.86 625.31 7.49967 624.526 6.779C623.774 6.027 623.398 5.10266 623.398 4.006C623.398 2.90933 623.774 2.00066 624.526 1.28C625.31 0.527998 626.281 0.151998 627.44 0.151998C628.6 0.151998 629.555 0.527998 630.307 1.28C631.091 2.00066 631.482 2.90933 631.482 4.006C631.482 5.10266 631.091 6.027 630.307 6.779C629.555 7.49967 628.6 7.86 627.44 7.86ZM630.683 10.962V37H624.103V10.962H630.683ZM647.148 37.423C645.018 37.423 643.106 37.047 641.414 36.295C639.722 35.5117 638.375 34.462 637.372 33.146C636.401 31.83 635.868 30.373 635.774 28.775H642.401C642.527 29.7777 643.012 30.608 643.858 31.266C644.736 31.924 645.817 32.253 647.101 32.253C648.355 32.253 649.326 32.0023 650.015 31.501C650.736 30.9997 651.096 30.3573 651.096 29.574C651.096 28.728 650.658 28.1013 649.78 27.694C648.934 27.2553 647.571 26.7853 645.691 26.284C643.749 25.814 642.151 25.3283 640.897 24.827C639.675 24.3257 638.61 23.558 637.701 22.524C636.824 21.49 636.385 20.0957 636.385 18.341C636.385 16.8997 636.793 15.5837 637.607 14.393C638.453 13.2023 639.644 12.2623 641.179 11.573C642.746 10.8837 644.579 10.539 646.678 10.539C649.78 10.539 652.256 11.3223 654.104 12.889C655.953 14.4243 656.971 16.508 657.159 19.14H650.861C650.767 18.106 650.329 17.2913 649.545 16.696C648.793 16.0693 647.775 15.756 646.49 15.756C645.3 15.756 644.375 15.9753 643.717 16.414C643.091 16.8527 642.777 17.4637 642.777 18.247C642.777 19.1243 643.216 19.798 644.093 20.268C644.971 20.7067 646.334 21.161 648.182 21.631C650.062 22.101 651.613 22.5867 652.835 23.088C654.057 23.5893 655.107 24.3727 655.984 25.438C656.893 26.472 657.363 27.8507 657.394 29.574C657.394 31.078 656.971 32.4253 656.125 33.616C655.311 34.8067 654.12 35.7467 652.553 36.436C651.018 37.094 649.216 37.423 647.148 37.423ZM665.71 37.329C664.519 37.329 663.532 36.9687 662.749 36.248C661.997 35.496 661.621 34.5717 661.621 33.475C661.621 32.3783 661.997 31.4697 662.749 30.749C663.532 29.997 664.519 29.621 665.71 29.621C666.869 29.621 667.825 29.997 668.577 30.749C669.329 31.4697 669.705 32.3783 669.705 33.475C669.705 34.5717 669.329 35.496 668.577 36.248C667.825 36.9687 666.869 37.329 665.71 37.329Z" fill="#BE185D"/>
  <path d="M226.272 14.722C227.118 13.5313 228.278 12.5443 229.75 11.761C231.254 10.9463 232.962 10.539 234.873 10.539C237.098 10.539 239.103 11.0873 240.889 12.184C242.707 13.2807 244.132 14.8473 245.166 16.884C246.232 18.8893 246.764 21.2237 246.764 23.887C246.764 26.5503 246.232 28.916 245.166 30.984C244.132 33.0207 242.707 34.603 240.889 35.731C239.103 36.859 237.098 37.423 234.873 37.423C232.962 37.423 231.27 37.0313 229.797 36.248C228.356 35.4647 227.181 34.4777 226.272 33.287V49.408H219.692V10.962H226.272V14.722ZM240.043 23.887C240.043 22.3203 239.714 20.973 239.056 19.845C238.43 18.6857 237.584 17.8083 236.518 17.213C235.484 16.6177 234.356 16.32 233.134 16.32C231.944 16.32 230.816 16.6333 229.75 17.26C228.716 17.8553 227.87 18.7327 227.212 19.892C226.586 21.0513 226.272 22.4143 226.272 23.981C226.272 25.5477 226.586 26.9107 227.212 28.07C227.87 29.2293 228.716 30.1223 229.75 30.749C230.816 31.3443 231.944 31.642 233.134 31.642C234.356 31.642 235.484 31.3287 236.518 30.702C237.584 30.0753 238.43 29.1823 239.056 28.023C239.714 26.8637 240.043 25.485 240.043 23.887ZM275.751 23.417C275.751 24.357 275.688 25.203 275.563 25.955H256.528C256.684 27.835 257.342 29.3077 258.502 30.373C259.661 31.4383 261.087 31.971 262.779 31.971C265.223 31.971 266.962 30.9213 267.996 28.822H275.093C274.341 31.3287 272.899 33.3967 270.769 35.026C268.638 36.624 266.022 37.423 262.92 37.423C260.413 37.423 258.157 36.8747 256.152 35.778C254.178 34.65 252.627 33.0677 251.499 31.031C250.402 28.9943 249.854 26.6443 249.854 23.981C249.854 21.2863 250.402 18.9207 251.499 16.884C252.595 14.8473 254.131 13.2807 256.105 12.184C258.079 11.0873 260.35 10.539 262.92 10.539C265.395 10.539 267.604 11.0717 269.547 12.137C271.521 13.2023 273.04 14.722 274.106 16.696C275.202 18.6387 275.751 20.879 275.751 23.417ZM268.936 21.537C268.904 19.845 268.293 18.4977 267.103 17.495C265.912 16.461 264.455 15.944 262.732 15.944C261.102 15.944 259.724 16.4453 258.596 17.448C257.499 18.4193 256.825 19.7823 256.575 21.537H268.936ZM292.116 37.423C289.609 37.423 287.353 36.8747 285.348 35.778C283.342 34.65 281.76 33.0677 280.601 31.031C279.473 28.9943 278.909 26.6443 278.909 23.981C278.909 21.3177 279.488 18.9677 280.648 16.931C281.838 14.8943 283.452 13.3277 285.489 12.231C287.525 11.103 289.797 10.539 292.304 10.539C294.81 10.539 297.082 11.103 299.119 12.231C301.155 13.3277 302.753 14.8943 303.913 16.931C305.103 18.9677 305.699 21.3177 305.699 23.981C305.699 26.6443 305.088 28.9943 303.866 31.031C302.675 33.0677 301.046 34.65 298.978 35.778C296.941 36.8747 294.654 37.423 292.116 37.423ZM292.116 31.689C293.306 31.689 294.419 31.407 295.453 30.843C296.518 30.2477 297.364 29.3703 297.991 28.211C298.617 27.0517 298.931 25.6417 298.931 23.981C298.931 21.5057 298.273 19.61 296.957 18.294C295.672 16.9467 294.09 16.273 292.21 16.273C290.33 16.273 288.747 16.9467 287.463 18.294C286.209 19.61 285.583 21.5057 285.583 23.981C285.583 26.4563 286.194 28.3677 287.416 29.715C288.669 31.031 290.236 31.689 292.116 31.689ZM317.105 14.722C317.951 13.5313 319.111 12.5443 320.583 11.761C322.087 10.9463 323.795 10.539 325.706 10.539C327.931 10.539 329.936 11.0873 331.722 12.184C333.54 13.2807 334.965 14.8473 335.999 16.884C337.065 18.8893 337.597 21.2237 337.597 23.887C337.597 26.5503 337.065 28.916 335.999 30.984C334.965 33.0207 333.54 34.603 331.722 35.731C329.936 36.859 327.931 37.423 325.706 37.423C323.795 37.423 322.103 37.0313 320.63 36.248C319.189 35.4647 318.014 34.4777 317.105 33.287V49.408H310.525V10.962H317.105V14.722ZM330.876 23.887C330.876 22.3203 330.547 20.973 329.889 19.845C329.263 18.6857 328.417 17.8083 327.351 17.213C326.317 16.6177 325.189 16.32 323.967 16.32C322.777 16.32 321.649 16.6333 320.583 17.26C319.549 17.8553 318.703 18.7327 318.045 19.892C317.419 21.0513 317.105 22.4143 317.105 23.981C317.105 25.5477 317.419 26.9107 318.045 28.07C318.703 29.2293 319.549 30.1223 320.583 30.749C321.649 31.3443 322.777 31.642 323.967 31.642C325.189 31.642 326.317 31.3287 327.351 30.702C328.417 30.0753 329.263 29.1823 329.889 28.023C330.547 26.8637 330.876 25.485 330.876 23.887ZM348.959 2.22V37H342.379V2.22H348.959ZM379.665 23.417C379.665 24.357 379.602 25.203 379.477 25.955H360.442C360.598 27.835 361.256 29.3077 362.416 30.373C363.575 31.4383 365.001 31.971 366.693 31.971C369.137 31.971 370.876 30.9213 371.91 28.822H379.007C378.255 31.3287 376.813 33.3967 374.683 35.026C372.552 36.624 369.936 37.423 366.834 37.423C364.327 37.423 362.071 36.8747 360.066 35.778C358.092 34.65 356.541 33.0677 355.413 31.031C354.316 28.9943 353.768 26.6443 353.768 23.981C353.768 21.2863 354.316 18.9207 355.413 16.884C356.509 14.8473 358.045 13.2807 360.019 12.184C361.993 11.0873 364.264 10.539 366.834 10.539C369.309 10.539 371.518 11.0717 373.461 12.137C375.435 13.2023 376.954 14.722 378.02 16.696C379.116 18.6387 379.665 20.879 379.665 23.417ZM372.85 21.537C372.818 19.845 372.207 18.4977 371.017 17.495C369.826 16.461 368.369 15.944 366.646 15.944C365.016 15.944 363.638 16.4453 362.51 17.448C361.413 18.4193 360.739 19.7823 360.489 21.537H372.85Z" fill="#F44336"/>
</svg>
