<svg width="133" height="29" viewBox="0 0 133 29" fill="none" xmlns="http://www.w3.org/2000/svg">
  <rect width="133" height="29" rx="14.5" fill="url(#paint0_linear_18_1885)"/>
  <path d="M35.1867 19.6013C34.2413 19.6013 33.3731 19.3794 32.5821 18.9357C31.7911 18.4919 31.1641 17.8794 30.701 17.098C30.238 16.307 30.0065 15.4146 30.0065 14.421C30.0065 13.4371 30.238 12.5544 30.701 11.773C31.1641 10.982 31.7911 10.3646 32.5821 9.92086C33.3731 9.47711 34.2413 9.25524 35.1867 9.25524C36.1417 9.25524 37.0099 9.47711 37.7913 9.92086C38.5823 10.3646 39.2045 10.982 39.6579 11.773C40.121 12.5544 40.3525 13.4371 40.3525 14.421C40.3525 15.4146 40.121 16.307 39.6579 17.098C39.2045 17.8794 38.5823 18.4919 37.7913 18.9357C37.0003 19.3794 36.1321 19.6013 35.1867 19.6013ZM35.1867 17.7925C35.7945 17.7925 36.3298 17.6575 36.7929 17.3874C37.2559 17.1076 37.6177 16.7121 37.8781 16.2008C38.1386 15.6896 38.2688 15.0963 38.2688 14.421C38.2688 13.7458 38.1386 13.1573 37.8781 12.6557C37.6177 12.1444 37.2559 11.7537 36.7929 11.4836C36.3298 11.2135 35.7945 11.0785 35.1867 11.0785C34.579 11.0785 34.0388 11.2135 33.5661 11.4836C33.103 11.7537 32.7413 12.1444 32.4808 12.6557C32.2204 13.1573 32.0901 13.7458 32.0901 14.421C32.0901 15.0963 32.2204 15.6896 32.4808 16.2008C32.7413 16.7121 33.103 17.1076 33.5661 17.3874C34.0388 17.6575 34.579 17.7925 35.1867 17.7925ZM43.8565 9.39994V15.651C43.8565 16.3359 44.035 16.8616 44.3919 17.2282C44.7488 17.5851 45.2504 17.7636 45.8968 17.7636C46.5527 17.7636 47.0592 17.5851 47.4161 17.2282C47.773 16.8616 47.9515 16.3359 47.9515 15.651V9.39994H49.9918V15.6365C49.9918 16.4951 49.8037 17.2234 49.4275 17.8215C49.0609 18.4099 48.5641 18.8537 47.937 19.1527C47.3197 19.4518 46.6299 19.6013 45.8678 19.6013C45.1154 19.6013 44.4305 19.4518 43.8131 19.1527C43.2054 18.8537 42.723 18.4099 42.3661 17.8215C42.0092 17.2234 41.8307 16.4951 41.8307 15.6365V9.39994H43.8565ZM57.1583 19.5L54.9299 15.5642H53.9749V19.5H51.9491V9.39994H55.7402C56.5216 9.39994 57.1872 9.53982 57.7371 9.81957C58.2869 10.0897 58.6969 10.4611 58.967 10.9338C59.2468 11.3968 59.3867 11.9177 59.3867 12.4965C59.3867 13.1621 59.1937 13.7651 58.8079 14.3053C58.422 14.8358 57.848 15.2024 57.0859 15.405L59.5024 19.5H57.1583ZM53.9749 14.0448H55.6679C56.2177 14.0448 56.6277 13.9146 56.8978 13.6541C57.1679 13.384 57.303 13.0126 57.303 12.5399C57.303 12.0769 57.1679 11.72 56.8978 11.4691C56.6277 11.2087 56.2177 11.0785 55.6679 11.0785H53.9749V14.0448ZM71.6993 12.4386C71.4677 12.0142 71.1494 11.691 70.7442 11.4691C70.3391 11.2473 69.8664 11.1363 69.3262 11.1363C68.7281 11.1363 68.1975 11.2714 67.7345 11.5415C67.2714 11.8116 66.9097 12.1975 66.6492 12.6991C66.3888 13.2007 66.2585 13.7795 66.2585 14.4355C66.2585 15.1108 66.3888 15.6992 66.6492 16.2008C66.9193 16.7025 67.2907 17.0883 67.7634 17.3584C68.2361 17.6285 68.786 17.7636 69.413 17.7636C70.1847 17.7636 70.8166 17.561 71.3086 17.1559C71.8006 16.7411 72.1237 16.1671 72.2781 15.4339H68.8053V13.8856H74.2749V15.651C74.1399 16.3552 73.8505 17.0063 73.4067 17.6044C72.963 18.2025 72.389 18.6849 71.6848 19.0514C70.9902 19.4084 70.2089 19.5868 69.3407 19.5868C68.3663 19.5868 67.4837 19.3698 66.6926 18.9357C65.9113 18.4919 65.2939 17.8794 64.8405 17.098C64.3967 16.3166 64.1749 15.4291 64.1749 14.4355C64.1749 13.4419 64.3967 12.5544 64.8405 11.773C65.2939 10.982 65.9113 10.3694 66.6926 9.93533C67.4837 9.49158 68.3615 9.26971 69.3262 9.26971C70.4645 9.26971 71.4533 9.54946 72.2925 10.109C73.1318 10.6588 73.7106 11.4354 74.0289 12.4386H71.6993ZM80.462 19.6013C79.5166 19.6013 78.6484 19.3794 77.8574 18.9357C77.0664 18.4919 76.4393 17.8794 75.9763 17.098C75.5132 16.307 75.2817 15.4146 75.2817 14.421C75.2817 13.4371 75.5132 12.5544 75.9763 11.773C76.4393 10.982 77.0664 10.3646 77.8574 9.92086C78.6484 9.47711 79.5166 9.25524 80.462 9.25524C81.417 9.25524 82.2852 9.47711 83.0666 9.92086C83.8576 10.3646 84.4798 10.982 84.9332 11.773C85.3963 12.5544 85.6278 13.4371 85.6278 14.421C85.6278 15.4146 85.3963 16.307 84.9332 17.098C84.4798 17.8794 83.8576 18.4919 83.0666 18.9357C82.2756 19.3794 81.4074 19.6013 80.462 19.6013ZM80.462 17.7925C81.0697 17.7925 81.6051 17.6575 82.0682 17.3874C82.5312 17.1076 82.8929 16.7121 83.1534 16.2008C83.4139 15.6896 83.5441 15.0963 83.5441 14.421C83.5441 13.7458 83.4139 13.1573 83.1534 12.6557C82.8929 12.1444 82.5312 11.7537 82.0682 11.4836C81.6051 11.2135 81.0697 11.0785 80.462 11.0785C79.8542 11.0785 79.314 11.2135 78.8413 11.4836C78.3783 11.7537 78.0166 12.1444 77.7561 12.6557C77.4956 13.1573 77.3654 13.7458 77.3654 14.421C77.3654 15.0963 77.4956 15.6896 77.7561 16.2008C78.0166 16.7121 78.3783 17.1076 78.8413 17.3874C79.314 17.6575 79.8542 17.7925 80.462 17.7925ZM93.3281 17.5755H89.3054L88.6398 19.5H86.5127L90.1447 9.38547H92.5033L96.1353 19.5H93.9937L93.3281 17.5755ZM92.7782 15.9548L91.3167 11.7296L89.8553 15.9548H92.7782ZM99.5186 17.8938H102.847V19.5H97.4928V9.39994H99.5186V17.8938Z" fill="white"/>
  <defs>
    <linearGradient id="paint0_linear_18_1885" x1="0" y1="14.5" x2="133" y2="14.5" gradientUnits="userSpaceOnUse">
      <stop stop-color="#BE185D"/>
      <stop offset="0.560992" stop-color="#DC3047"/>
      <stop offset="1" stop-color="#F44336"/>
    </linearGradient>
  </defs>
</svg>
