<svg width="159" height="32" viewBox="0 0 159 32" fill="none" xmlns="http://www.w3.org/2000/svg">
  <rect width="159" height="32" rx="16" fill="url(#paint0_linear_18_1889)"/>
  <path d="M48.6867 21.1013C47.7413 21.1013 46.8731 20.8794 46.0821 20.4357C45.2911 19.9919 44.6641 19.3794 44.201 18.598C43.738 17.807 43.5065 16.9146 43.5065 15.921C43.5065 14.9371 43.738 14.0544 44.201 13.273C44.6641 12.482 45.2911 11.8646 46.0821 11.4209C46.8731 10.9771 47.7413 10.7552 48.6867 10.7552C49.6417 10.7552 50.5099 10.9771 51.2913 11.4209C52.0823 11.8646 52.7045 12.482 53.1579 13.273C53.621 14.0544 53.8525 14.9371 53.8525 15.921C53.8525 16.9146 53.621 17.807 53.1579 18.598C52.7045 19.3794 52.0823 19.9919 51.2913 20.4357C50.5003 20.8794 49.6321 21.1013 48.6867 21.1013ZM48.6867 19.2925C49.2945 19.2925 49.8298 19.1575 50.2929 18.8874C50.7559 18.6076 51.1177 18.2121 51.3781 17.7008C51.6386 17.1896 51.7688 16.5963 51.7688 15.921C51.7688 15.2458 51.6386 14.6573 51.3781 14.1557C51.1177 13.6444 50.7559 13.2537 50.2929 12.9836C49.8298 12.7135 49.2945 12.5785 48.6867 12.5785C48.079 12.5785 47.5388 12.7135 47.0661 12.9836C46.603 13.2537 46.2413 13.6444 45.9808 14.1557C45.7204 14.6573 45.5901 15.2458 45.5901 15.921C45.5901 16.5963 45.7204 17.1896 45.9808 17.7008C46.2413 18.2121 46.603 18.6076 47.0661 18.8874C47.5388 19.1575 48.079 19.2925 48.6867 19.2925ZM62.9275 12.9836V21H60.8872V19.9871C60.6267 20.3344 60.2843 20.6093 59.8598 20.8119C59.445 21.0048 58.9916 21.1013 58.4996 21.1013C57.8726 21.1013 57.3179 20.9711 56.8356 20.7106C56.3532 20.4405 55.9722 20.0498 55.6925 19.5385C55.4223 19.0176 55.2873 18.4002 55.2873 17.6864V12.9836H57.3131V17.397C57.3131 18.0336 57.4723 18.5256 57.7906 18.8729C58.1089 19.2105 58.543 19.3794 59.0929 19.3794C59.6524 19.3794 60.0913 19.2105 60.4097 18.8729C60.728 18.5256 60.8872 18.0336 60.8872 17.397V12.9836H62.9275ZM66.952 14.228C67.2125 13.8036 67.5501 13.4708 67.9649 13.2296C68.3894 12.9884 68.8717 12.8679 69.4119 12.8679V14.9949H68.8765C68.2399 14.9949 67.7575 15.1445 67.4295 15.4435C67.1112 15.7426 66.952 16.2635 66.952 17.0063V21H64.9262V12.9836H66.952V14.228ZM81.0976 10.8999V12.535H78.4062V21H76.3804V12.535H73.6889V10.8999H81.0976ZM90.0277 16.8182C90.0277 17.1076 90.0084 17.368 89.9698 17.5995H84.1095C84.1577 18.1783 84.3603 18.6317 84.7172 18.9597C85.0742 19.2877 85.5131 19.4517 86.034 19.4517C86.7864 19.4517 87.3218 19.1285 87.6402 18.4822H89.8251C89.5936 19.254 89.1499 19.8906 88.4939 20.3923C87.8379 20.8842 87.0324 21.1302 86.0774 21.1302C85.3057 21.1302 84.6111 20.9614 83.9937 20.6238C83.386 20.2765 82.9085 19.7893 82.5612 19.1623C82.2236 18.5353 82.0548 17.8118 82.0548 16.9918C82.0548 16.1622 82.2236 15.4339 82.5612 14.8068C82.8988 14.1798 83.3715 13.6975 83.9793 13.3598C84.587 13.0222 85.2864 12.8534 86.0774 12.8534C86.8395 12.8534 87.5196 13.0174 88.1177 13.3454C88.7254 13.6734 89.1933 14.1412 89.5213 14.749C89.8589 15.3471 90.0277 16.0368 90.0277 16.8182ZM87.9296 16.2394C87.9199 15.7184 87.7318 15.3036 87.3652 14.9949C86.9987 14.6766 86.5501 14.5174 86.0195 14.5174C85.5179 14.5174 85.0935 14.6718 84.7462 14.9805C84.4085 15.2795 84.2011 15.6992 84.124 16.2394H87.9296ZM90.9855 16.9629C90.9855 16.1525 91.1446 15.4339 91.463 14.8068C91.791 14.1798 92.2299 13.6975 92.7797 13.3598C93.3392 13.0222 93.9615 12.8534 94.6464 12.8534C95.2445 12.8534 95.7654 12.974 96.2091 13.2151C96.6625 13.4563 97.0243 13.7602 97.2944 14.1267V12.9836H99.3347V21H97.2944V19.8279C97.0339 20.2041 96.6722 20.5177 96.2091 20.7685C95.7557 21.0096 95.23 21.1302 94.6319 21.1302C93.9566 21.1302 93.3392 20.9566 92.7797 20.6093C92.2299 20.262 91.791 19.7749 91.463 19.1478C91.1446 18.5112 90.9855 17.7828 90.9855 16.9629ZM97.2944 16.9918C97.2944 16.4998 97.1979 16.0802 97.005 15.7329C96.812 15.376 96.5516 15.1059 96.2236 14.9226C95.8956 14.7297 95.5435 14.6332 95.1673 14.6332C94.7911 14.6332 94.4438 14.7248 94.1254 14.9081C93.8071 15.0914 93.5467 15.3615 93.3441 15.7184C93.1511 16.0657 93.0547 16.4805 93.0547 16.9629C93.0547 17.4452 93.1511 17.8697 93.3441 18.2362C93.5467 18.5932 93.8071 18.8681 94.1254 19.061C94.4534 19.254 94.8007 19.3504 95.1673 19.3504C95.5435 19.3504 95.8956 19.2588 96.2236 19.0755C96.5516 18.8826 96.812 18.6124 97.005 18.2652C97.1979 17.9082 97.2944 17.4838 97.2944 16.9918ZM111.269 12.8679C112.253 12.8679 113.044 13.1717 113.642 13.7795C114.249 14.3776 114.553 15.2168 114.553 16.2972V21H112.527V16.5722C112.527 15.9451 112.368 15.4676 112.05 15.1396C111.732 14.802 111.297 14.6332 110.748 14.6332C110.198 14.6332 109.759 14.802 109.431 15.1396C109.113 15.4676 108.953 15.9451 108.953 16.5722V21H106.928V16.5722C106.928 15.9451 106.768 15.4676 106.45 15.1396C106.132 14.802 105.698 14.6332 105.148 14.6332C104.588 14.6332 104.144 14.802 103.817 15.1396C103.498 15.4676 103.339 15.9451 103.339 16.5722V21H101.313V12.9836H103.339V13.9531C103.599 13.6155 103.932 13.3502 104.337 13.1573C104.752 12.9643 105.206 12.8679 105.698 12.8679C106.325 12.8679 106.884 13.0029 107.376 13.273C107.868 13.5335 108.249 13.9097 108.519 14.4017C108.78 13.9386 109.156 13.5672 109.648 13.2875C110.15 13.0077 110.69 12.8679 111.269 12.8679Z" fill="white"/>
  <defs>
    <linearGradient id="paint0_linear_18_1889" x1="0" y1="16" x2="159" y2="16" gradientUnits="userSpaceOnUse">
      <stop stop-color="#BE185D"/>
      <stop offset="0.560992" stop-color="#DC3047"/>
      <stop offset="1" stop-color="#F44336"/>
    </linearGradient>
  </defs>
</svg>
