<svg width="669" height="126" viewBox="0 0 669 126" fill="none" xmlns="http://www.w3.org/2000/svg">
  <path d="M53.4283 5.308L42.8983 43H33.9883L26.9143 16.162L19.5163 43L10.6603 43.054L0.508313 5.308H8.60831L15.2503 34.576L22.9183 5.308H31.3423L38.5783 34.414L45.2743 5.308H53.4283ZM86.1747 27.394C86.1747 28.474 86.1027 29.446 85.9587 30.31H64.0887C64.2687 32.47 65.0247 34.162 66.3567 35.386C67.6887 36.61 69.3267 37.222 71.2707 37.222C74.0787 37.222 76.0767 36.016 77.2647 33.604H85.4187C84.5547 36.484 82.8987 38.86 80.4507 40.732C78.0027 42.568 74.9967 43.486 71.4327 43.486C68.5527 43.486 65.9607 42.856 63.6567 41.596C61.3887 40.3 59.6067 38.482 58.3107 36.142C57.0507 33.802 56.4207 31.102 56.4207 28.042C56.4207 24.946 57.0507 22.228 58.3107 19.888C59.5707 17.548 61.3347 15.748 63.6027 14.488C65.8707 13.228 68.4807 12.598 71.4327 12.598C74.2767 12.598 76.8147 13.21 79.0467 14.434C81.3147 15.658 83.0607 17.404 84.2847 19.672C85.5447 21.904 86.1747 24.478 86.1747 27.394ZM78.3447 25.234C78.3087 23.29 77.6067 21.742 76.2387 20.59C74.8707 19.402 73.1967 18.808 71.2167 18.808C69.3447 18.808 67.7607 19.384 66.4647 20.536C65.2047 21.652 64.4307 23.218 64.1427 25.234H78.3447ZM121.408 12.652C123.676 12.652 125.692 13.156 127.456 14.164C129.22 15.136 130.588 16.594 131.56 18.538C132.568 20.446 133.072 22.75 133.072 25.45V43H125.512V26.476C125.512 24.1 124.918 22.282 123.73 21.022C122.542 19.726 120.922 19.078 118.87 19.078C116.782 19.078 115.126 19.726 113.902 21.022C112.714 22.282 112.12 24.1 112.12 26.476V43H104.56V3.04H112.12V16.81C113.092 15.514 114.388 14.506 116.008 13.786C117.628 13.03 119.428 12.652 121.408 12.652ZM168.071 27.394C168.071 28.474 167.999 29.446 167.855 30.31H145.985C146.165 32.47 146.921 34.162 148.253 35.386C149.585 36.61 151.223 37.222 153.167 37.222C155.975 37.222 157.973 36.016 159.161 33.604H167.315C166.451 36.484 164.795 38.86 162.347 40.732C159.899 42.568 156.893 43.486 153.329 43.486C150.449 43.486 147.857 42.856 145.553 41.596C143.285 40.3 141.503 38.482 140.207 36.142C138.947 33.802 138.317 31.102 138.317 28.042C138.317 24.946 138.947 22.228 140.207 19.888C141.467 17.548 143.231 15.748 145.499 14.488C147.767 13.228 150.377 12.598 153.329 12.598C156.173 12.598 158.711 13.21 160.943 14.434C163.211 15.658 164.957 17.404 166.181 19.672C167.441 21.904 168.071 24.478 168.071 27.394ZM160.241 25.234C160.205 23.29 159.503 21.742 158.135 20.59C156.767 19.402 155.093 18.808 153.113 18.808C151.241 18.808 149.657 19.384 148.361 20.536C147.101 21.652 146.327 23.218 146.039 25.234H160.241ZM181.149 3.04V43H173.589V3.04H181.149ZM196.179 17.404C197.151 16.036 198.483 14.902 200.175 14.002C201.903 13.066 203.865 12.598 206.061 12.598C208.617 12.598 210.921 13.228 212.973 14.488C215.061 15.748 216.699 17.548 217.887 19.888C219.111 22.192 219.723 24.874 219.723 27.934C219.723 30.994 219.111 33.712 217.887 36.088C216.699 38.428 215.061 40.246 212.973 41.542C210.921 42.838 208.617 43.486 206.061 43.486C203.865 43.486 201.921 43.036 200.229 42.136C198.573 41.236 197.223 40.102 196.179 38.734V57.256H188.619V13.084H196.179V17.404ZM212.001 27.934C212.001 26.134 211.623 24.586 210.867 23.29C210.147 21.958 209.175 20.95 207.951 20.266C206.763 19.582 205.467 19.24 204.063 19.24C202.695 19.24 201.399 19.6 200.175 20.32C198.987 21.004 198.015 22.012 197.259 23.344C196.539 24.676 196.179 26.242 196.179 28.042C196.179 29.842 196.539 31.408 197.259 32.74C198.015 34.072 198.987 35.098 200.175 35.818C201.399 36.502 202.695 36.844 204.063 36.844C205.467 36.844 206.763 36.484 207.951 35.764C209.175 35.044 210.147 34.018 210.867 32.686C211.623 31.354 212.001 29.77 212.001 27.934ZM577.362 13.084L558.84 57.148H550.794L557.274 42.244L545.286 13.084H553.764L561.486 33.982L569.316 13.084H577.362ZM594.721 43.486C591.841 43.486 589.249 42.856 586.945 41.596C584.641 40.3 582.823 38.482 581.491 36.142C580.195 33.802 579.547 31.102 579.547 28.042C579.547 24.982 580.213 22.282 581.545 19.942C582.913 17.602 584.767 15.802 587.107 14.542C589.447 13.246 592.057 12.598 594.937 12.598C597.817 12.598 600.427 13.246 602.767 14.542C605.107 15.802 606.943 17.602 608.275 19.942C609.643 22.282 610.327 24.982 610.327 28.042C610.327 31.102 609.625 33.802 608.221 36.142C606.853 38.482 604.981 40.3 602.605 41.596C600.265 42.856 597.637 43.486 594.721 43.486ZM594.721 36.898C596.089 36.898 597.367 36.574 598.555 35.926C599.779 35.242 600.751 34.234 601.471 32.902C602.191 31.57 602.551 29.95 602.551 28.042C602.551 25.198 601.795 23.02 600.283 21.508C598.807 19.96 596.989 19.186 594.829 19.186C592.669 19.186 590.851 19.96 589.375 21.508C587.935 23.02 587.215 25.198 587.215 28.042C587.215 30.886 587.917 33.082 589.321 34.63C590.761 36.142 592.561 36.898 594.721 36.898ZM644.114 13.084V43H636.5V39.22C635.528 40.516 634.25 41.542 632.666 42.298C631.118 43.018 629.426 43.378 627.59 43.378C625.25 43.378 623.18 42.892 621.38 41.92C619.58 40.912 618.158 39.454 617.114 37.546C616.106 35.602 615.602 33.298 615.602 30.634V13.084H623.162V29.554C623.162 31.93 623.756 33.766 624.944 35.062C626.132 36.322 627.752 36.952 629.804 36.952C631.892 36.952 633.53 36.322 634.718 35.062C635.906 33.766 636.5 31.93 636.5 29.554V13.084H644.114ZM659.134 17.728C660.106 16.144 661.366 14.902 662.914 14.002C664.498 13.102 666.298 12.652 668.314 12.652V20.59H666.316C663.94 20.59 662.14 21.148 660.916 22.264C659.728 23.38 659.134 25.324 659.134 28.096V43H651.574V13.084H659.134V17.728ZM45.6483 85.404C46.6203 84.036 47.9523 82.902 49.6443 82.002C51.3723 81.066 53.3343 80.598 55.5303 80.598C58.0863 80.598 60.3903 81.228 62.4423 82.488C64.5303 83.748 66.1683 85.548 67.3563 87.888C68.5803 90.192 69.1923 92.874 69.1923 95.934C69.1923 98.994 68.5803 101.712 67.3563 104.088C66.1683 106.428 64.5303 108.246 62.4423 109.542C60.3903 110.838 58.0863 111.486 55.5303 111.486C53.3343 111.486 51.3903 111.036 49.6983 110.136C48.0423 109.236 46.6923 108.102 45.6483 106.734V125.256H38.0883V81.084H45.6483V85.404ZM61.4703 95.934C61.4703 94.134 61.0923 92.586 60.3363 91.29C59.6163 89.958 58.6443 88.95 57.4203 88.266C56.2323 87.582 54.9363 87.24 53.5323 87.24C52.1643 87.24 50.8683 87.6 49.6443 88.32C48.4563 89.004 47.4843 90.012 46.7283 91.344C46.0083 92.676 45.6483 94.242 45.6483 96.042C45.6483 97.842 46.0083 99.408 46.7283 100.74C47.4843 102.072 48.4563 103.098 49.6443 103.818C50.8683 104.502 52.1643 104.844 53.5323 104.844C54.9363 104.844 56.2323 104.484 57.4203 103.764C58.6443 103.044 59.6163 102.018 60.3363 100.686C61.0923 99.354 61.4703 97.77 61.4703 95.934ZM91.534 80.652C93.802 80.652 95.818 81.156 97.582 82.164C99.346 83.136 100.714 84.594 101.686 86.538C102.694 88.446 103.198 90.75 103.198 93.45V111H95.638V94.476C95.638 92.1 95.044 90.282 93.856 89.022C92.668 87.726 91.048 87.078 88.996 87.078C86.908 87.078 85.252 87.726 84.028 89.022C82.84 90.282 82.246 92.1 82.246 94.476V111H74.686V71.04H82.246V84.81C83.218 83.514 84.514 82.506 86.134 81.786C87.754 81.03 89.554 80.652 91.534 80.652ZM108.443 95.934C108.443 92.91 109.037 90.228 110.225 87.888C111.449 85.548 113.087 83.748 115.139 82.488C117.227 81.228 119.549 80.598 122.105 80.598C124.337 80.598 126.281 81.048 127.937 81.948C129.629 82.848 130.979 83.982 131.987 85.35V81.084H139.601V111H131.987V106.626C131.015 108.03 129.665 109.2 127.937 110.136C126.245 111.036 124.283 111.486 122.051 111.486C119.531 111.486 117.227 110.838 115.139 109.542C113.087 108.246 111.449 106.428 110.225 104.088C109.037 101.712 108.443 98.994 108.443 95.934ZM131.987 96.042C131.987 94.206 131.627 92.64 130.907 91.344C130.187 90.012 129.215 89.004 127.991 88.32C126.767 87.6 125.453 87.24 124.049 87.24C122.645 87.24 121.349 87.582 120.161 88.266C118.973 88.95 118.001 89.958 117.245 91.29C116.525 92.586 116.165 94.134 116.165 95.934C116.165 97.734 116.525 99.318 117.245 100.686C118.001 102.018 118.973 103.044 120.161 103.764C121.385 104.484 122.681 104.844 124.049 104.844C125.453 104.844 126.767 104.502 127.991 103.818C129.215 103.098 130.187 102.09 130.907 100.794C131.627 99.462 131.987 97.878 131.987 96.042ZM154.545 85.728C155.517 84.144 156.777 82.902 158.325 82.002C159.909 81.102 161.709 80.652 163.725 80.652V88.59H161.727C159.351 88.59 157.551 89.148 156.327 90.264C155.139 91.38 154.545 93.324 154.545 96.096V111H146.985V81.084H154.545V85.728ZM205.969 80.652C209.641 80.652 212.593 81.786 214.825 84.054C217.093 86.286 218.227 89.418 218.227 93.45V111H210.667V94.476C210.667 92.136 210.073 90.354 208.885 89.13C207.697 87.87 206.077 87.24 204.025 87.24C201.973 87.24 200.335 87.87 199.111 89.13C197.923 90.354 197.329 92.136 197.329 94.476V111H189.769V94.476C189.769 92.136 189.175 90.354 187.987 89.13C186.799 87.87 185.179 87.24 183.127 87.24C181.039 87.24 179.383 87.87 178.159 89.13C176.971 90.354 176.377 92.136 176.377 94.476V111H168.817V81.084H176.377V84.702C177.349 83.442 178.591 82.452 180.103 81.732C181.651 81.012 183.343 80.652 185.179 80.652C187.519 80.652 189.607 81.156 191.443 82.164C193.279 83.136 194.701 84.54 195.709 86.376C196.681 84.648 198.085 83.262 199.921 82.218C201.793 81.174 203.809 80.652 205.969 80.652ZM223.457 95.934C223.457 92.91 224.051 90.228 225.239 87.888C226.463 85.548 228.101 83.748 230.153 82.488C232.241 81.228 234.563 80.598 237.119 80.598C239.351 80.598 241.295 81.048 242.951 81.948C244.643 82.848 245.993 83.982 247.001 85.35V81.084H254.615V111H247.001V106.626C246.029 108.03 244.679 109.2 242.951 110.136C241.259 111.036 239.297 111.486 237.065 111.486C234.545 111.486 232.241 110.838 230.153 109.542C228.101 108.246 226.463 106.428 225.239 104.088C224.051 101.712 223.457 98.994 223.457 95.934ZM247.001 96.042C247.001 94.206 246.641 92.64 245.921 91.344C245.201 90.012 244.229 89.004 243.005 88.32C241.781 87.6 240.467 87.24 239.063 87.24C237.659 87.24 236.363 87.582 235.175 88.266C233.987 88.95 233.015 89.958 232.259 91.29C231.539 92.586 231.179 94.134 231.179 95.934C231.179 97.734 231.539 99.318 232.259 100.686C233.015 102.018 233.987 103.044 235.175 103.764C236.399 104.484 237.695 104.844 239.063 104.844C240.467 104.844 241.781 104.502 243.005 103.818C244.229 103.098 245.201 102.09 245.921 100.794C246.641 99.462 247.001 97.878 247.001 96.042ZM260.054 96.042C260.054 92.946 260.684 90.246 261.944 87.942C263.204 85.602 264.95 83.802 267.182 82.542C269.414 81.246 271.97 80.598 274.85 80.598C278.558 80.598 281.618 81.534 284.03 83.406C286.478 85.242 288.116 87.834 288.944 91.182H280.79C280.358 89.886 279.62 88.878 278.576 88.158C277.568 87.402 276.308 87.024 274.796 87.024C272.636 87.024 270.926 87.816 269.666 89.4C268.406 90.948 267.776 93.162 267.776 96.042C267.776 98.886 268.406 101.1 269.666 102.684C270.926 104.232 272.636 105.006 274.796 105.006C277.856 105.006 279.854 103.638 280.79 100.902H288.944C288.116 104.142 286.478 106.716 284.03 108.624C281.582 110.532 278.522 111.486 274.85 111.486C271.97 111.486 269.414 110.856 267.182 109.596C264.95 108.3 263.204 106.5 261.944 104.196C260.684 101.856 260.054 99.138 260.054 96.042ZM323.103 81.084L304.581 125.148H296.535L303.015 110.244L291.027 81.084H299.505L307.227 101.982L315.057 81.084H323.103ZM353.329 111.486C350.449 111.486 347.857 110.856 345.553 109.596C343.249 108.3 341.431 106.482 340.099 104.142C338.803 101.802 338.155 99.102 338.155 96.042C338.155 92.982 338.821 90.282 340.153 87.942C341.521 85.602 343.375 83.802 345.715 82.542C348.055 81.246 350.665 80.598 353.545 80.598C356.425 80.598 359.035 81.246 361.375 82.542C363.715 83.802 365.551 85.602 366.883 87.942C368.251 90.282 368.935 92.982 368.935 96.042C368.935 99.102 368.233 101.802 366.829 104.142C365.461 106.482 363.589 108.3 361.213 109.596C358.873 110.856 356.245 111.486 353.329 111.486ZM353.329 104.898C354.697 104.898 355.975 104.574 357.163 103.926C358.387 103.242 359.359 102.234 360.079 100.902C360.799 99.57 361.159 97.95 361.159 96.042C361.159 93.198 360.403 91.02 358.891 89.508C357.415 87.96 355.597 87.186 353.437 87.186C351.277 87.186 349.459 87.96 347.983 89.508C346.543 91.02 345.823 93.198 345.823 96.042C345.823 98.886 346.525 101.082 347.929 102.63C349.369 104.142 351.169 104.898 353.329 104.898ZM382.041 85.404C383.013 84.036 384.345 82.902 386.037 82.002C387.765 81.066 389.727 80.598 391.923 80.598C394.479 80.598 396.783 81.228 398.835 82.488C400.923 83.748 402.561 85.548 403.749 87.888C404.973 90.192 405.585 92.874 405.585 95.934C405.585 98.994 404.973 101.712 403.749 104.088C402.561 106.428 400.923 108.246 398.835 109.542C396.783 110.838 394.479 111.486 391.923 111.486C389.727 111.486 387.783 111.036 386.091 110.136C384.435 109.236 383.085 108.102 382.041 106.734V125.256H374.481V81.084H382.041V85.404ZM397.863 95.934C397.863 94.134 397.485 92.586 396.729 91.29C396.009 89.958 395.037 88.95 393.813 88.266C392.625 87.582 391.329 87.24 389.925 87.24C388.557 87.24 387.261 87.6 386.037 88.32C384.849 89.004 383.877 90.012 383.121 91.344C382.401 92.676 382.041 94.242 382.041 96.042C382.041 97.842 382.401 99.408 383.121 100.74C383.877 102.072 384.849 103.098 386.037 103.818C387.261 104.502 388.557 104.844 389.925 104.844C391.329 104.844 392.625 104.484 393.813 103.764C395.037 103.044 396.009 102.018 396.729 100.686C397.485 99.354 397.863 97.77 397.863 95.934ZM438.889 95.394C438.889 96.474 438.817 97.446 438.673 98.31H416.803C416.983 100.47 417.739 102.162 419.071 103.386C420.403 104.61 422.041 105.222 423.985 105.222C426.793 105.222 428.791 104.016 429.979 101.604H438.133C437.269 104.484 435.613 106.86 433.165 108.732C430.717 110.568 427.711 111.486 424.147 111.486C421.267 111.486 418.675 110.856 416.371 109.596C414.103 108.3 412.321 106.482 411.025 104.142C409.765 101.802 409.135 99.102 409.135 96.042C409.135 92.946 409.765 90.228 411.025 87.888C412.285 85.548 414.049 83.748 416.317 82.488C418.585 81.228 421.195 80.598 424.147 80.598C426.991 80.598 429.529 81.21 431.761 82.434C434.029 83.658 435.775 85.404 436.999 87.672C438.259 89.904 438.889 92.478 438.889 95.394ZM431.059 93.234C431.023 91.29 430.321 89.742 428.953 88.59C427.585 87.402 425.911 86.808 423.931 86.808C422.059 86.808 420.475 87.384 419.179 88.536C417.919 89.652 417.145 91.218 416.857 93.234H431.059ZM451.967 85.728C452.939 84.144 454.199 82.902 455.747 82.002C457.331 81.102 459.131 80.652 461.147 80.652V88.59H459.149C456.773 88.59 454.973 89.148 453.749 90.264C452.561 91.38 451.967 93.324 451.967 96.096V111H444.407V81.084H451.967V85.728ZM464.295 95.934C464.295 92.91 464.889 90.228 466.077 87.888C467.301 85.548 468.939 83.748 470.991 82.488C473.079 81.228 475.401 80.598 477.957 80.598C480.189 80.598 482.133 81.048 483.789 81.948C485.481 82.848 486.831 83.982 487.839 85.35V81.084H495.453V111H487.839V106.626C486.867 108.03 485.517 109.2 483.789 110.136C482.097 111.036 480.135 111.486 477.903 111.486C475.383 111.486 473.079 110.838 470.991 109.542C468.939 108.246 467.301 106.428 466.077 104.088C464.889 101.712 464.295 98.994 464.295 95.934ZM487.839 96.042C487.839 94.206 487.479 92.64 486.759 91.344C486.039 90.012 485.067 89.004 483.843 88.32C482.619 87.6 481.305 87.24 479.901 87.24C478.497 87.24 477.201 87.582 476.013 88.266C474.825 88.95 473.853 89.958 473.097 91.29C472.377 92.586 472.017 94.134 472.017 95.934C472.017 97.734 472.377 99.318 473.097 100.686C473.853 102.018 474.825 103.044 476.013 103.764C477.237 104.484 478.533 104.844 479.901 104.844C481.305 104.844 482.619 104.502 483.843 103.818C485.067 103.098 486.039 102.09 486.759 100.794C487.479 99.462 487.839 97.878 487.839 96.042ZM511.638 87.294V101.766C511.638 102.774 511.872 103.512 512.34 103.98C512.844 104.412 513.672 104.628 514.824 104.628H518.334V111H513.582C507.21 111 504.024 107.904 504.024 101.712V87.294H500.46V81.084H504.024V73.686H511.638V81.084H518.334V87.294H511.638ZM527.606 77.52C526.274 77.52 525.158 77.106 524.258 76.278C523.394 75.414 522.962 74.352 522.962 73.092C522.962 71.832 523.394 70.788 524.258 69.96C525.158 69.096 526.274 68.664 527.606 68.664C528.938 68.664 530.036 69.096 530.9 69.96C531.8 70.788 532.25 71.832 532.25 73.092C532.25 74.352 531.8 75.414 530.9 76.278C530.036 77.106 528.938 77.52 527.606 77.52ZM531.332 81.084V111H523.772V81.084H531.332ZM552.085 111.486C549.205 111.486 546.613 110.856 544.309 109.596C542.005 108.3 540.187 106.482 538.855 104.142C537.559 101.802 536.911 99.102 536.911 96.042C536.911 92.982 537.577 90.282 538.909 87.942C540.277 85.602 542.131 83.802 544.471 82.542C546.811 81.246 549.421 80.598 552.301 80.598C555.181 80.598 557.791 81.246 560.131 82.542C562.471 83.802 564.307 85.602 565.639 87.942C567.007 90.282 567.691 92.982 567.691 96.042C567.691 99.102 566.989 101.802 565.585 104.142C564.217 106.482 562.345 108.3 559.969 109.596C557.629 110.856 555.001 111.486 552.085 111.486ZM552.085 104.898C553.453 104.898 554.731 104.574 555.919 103.926C557.143 103.242 558.115 102.234 558.835 100.902C559.555 99.57 559.915 97.95 559.915 96.042C559.915 93.198 559.159 91.02 557.647 89.508C556.171 87.96 554.353 87.186 552.193 87.186C550.033 87.186 548.215 87.96 546.739 89.508C545.299 91.02 544.579 93.198 544.579 96.042C544.579 98.886 545.281 101.082 546.685 102.63C548.125 104.142 549.925 104.898 552.085 104.898ZM589.815 80.652C593.379 80.652 596.259 81.786 598.455 84.054C600.651 86.286 601.749 89.418 601.749 93.45V111H594.189V94.476C594.189 92.1 593.595 90.282 592.407 89.022C591.219 87.726 589.599 87.078 587.547 87.078C585.459 87.078 583.803 87.726 582.579 89.022C581.391 90.282 580.797 92.1 580.797 94.476V111H573.237V81.084H580.797V84.81C581.805 83.514 583.083 82.506 584.631 81.786C586.215 81.03 587.943 80.652 589.815 80.652ZM620.386 111.486C617.938 111.486 615.742 111.054 613.798 110.19C611.854 109.29 610.306 108.084 609.154 106.572C608.038 105.06 607.426 103.386 607.318 101.55H614.932C615.076 102.702 615.634 103.656 616.606 104.412C617.614 105.168 618.856 105.546 620.332 105.546C621.772 105.546 622.888 105.258 623.68 104.682C624.508 104.106 624.922 103.368 624.922 102.468C624.922 101.496 624.418 100.776 623.41 100.308C622.438 99.804 620.872 99.264 618.712 98.688C616.48 98.148 614.644 97.59 613.204 97.014C611.8 96.438 610.576 95.556 609.532 94.368C608.524 93.18 608.02 91.578 608.02 89.562C608.02 87.906 608.488 86.394 609.424 85.026C610.396 83.658 611.764 82.578 613.528 81.786C615.328 80.994 617.434 80.598 619.846 80.598C623.41 80.598 626.254 81.498 628.378 83.298C630.502 85.062 631.672 87.456 631.888 90.48H624.652C624.544 89.292 624.04 88.356 623.14 87.672C622.276 86.952 621.106 86.592 619.63 86.592C618.262 86.592 617.2 86.844 616.444 87.348C615.724 87.852 615.364 88.554 615.364 89.454C615.364 90.462 615.868 91.236 616.876 91.776C617.884 92.28 619.45 92.802 621.574 93.342C623.734 93.882 625.516 94.44 626.92 95.016C628.324 95.592 629.53 96.492 630.538 97.716C631.582 98.904 632.122 100.488 632.158 102.468C632.158 104.196 631.672 105.744 630.7 107.112C629.764 108.48 628.396 109.56 626.596 110.352C624.832 111.108 622.762 111.486 620.386 111.486Z" fill="#BE185D"/>
  <path d="M249.531 43.486C247.083 43.486 244.887 43.054 242.943 42.19C240.999 41.29 239.451 40.084 238.299 38.572C237.183 37.06 236.571 35.386 236.463 33.55H244.077C244.221 34.702 244.779 35.656 245.751 36.412C246.759 37.168 248.001 37.546 249.477 37.546C250.917 37.546 252.033 37.258 252.825 36.682C253.653 36.106 254.067 35.368 254.067 34.468C254.067 33.496 253.563 32.776 252.555 32.308C251.583 31.804 250.017 31.264 247.857 30.688C245.625 30.148 243.789 29.59 242.349 29.014C240.945 28.438 239.721 27.556 238.677 26.368C237.669 25.18 237.165 23.578 237.165 21.562C237.165 19.906 237.633 18.394 238.569 17.026C239.541 15.658 240.909 14.578 242.673 13.786C244.473 12.994 246.579 12.598 248.991 12.598C252.555 12.598 255.399 13.498 257.523 15.298C259.647 17.062 260.817 19.456 261.033 22.48H253.797C253.689 21.292 253.185 20.356 252.285 19.672C251.421 18.952 250.251 18.592 248.775 18.592C247.407 18.592 246.345 18.844 245.589 19.348C244.869 19.852 244.509 20.554 244.509 21.454C244.509 22.462 245.013 23.236 246.021 23.776C247.029 24.28 248.595 24.802 250.719 25.342C252.879 25.882 254.661 26.44 256.065 27.016C257.469 27.592 258.675 28.492 259.683 29.716C260.727 30.904 261.267 32.488 261.303 34.468C261.303 36.196 260.817 37.744 259.845 39.112C258.909 40.48 257.541 41.56 255.741 42.352C253.977 43.108 251.907 43.486 249.531 43.486ZM276.311 19.294V33.766C276.311 34.774 276.545 35.512 277.013 35.98C277.517 36.412 278.345 36.628 279.497 36.628H283.007V43H278.255C271.883 43 268.697 39.904 268.697 33.712V19.294H265.133V13.084H268.697V5.686H276.311V13.084H283.007V19.294H276.311ZM296.005 17.728C296.977 16.144 298.237 14.902 299.785 14.002C301.369 13.102 303.169 12.652 305.185 12.652V20.59H303.187C300.811 20.59 299.011 21.148 297.787 22.264C296.599 23.38 296.005 25.324 296.005 28.096V43H288.445V13.084H296.005V17.728ZM338.087 27.394C338.087 28.474 338.015 29.446 337.871 30.31H316.001C316.181 32.47 316.937 34.162 318.269 35.386C319.601 36.61 321.239 37.222 323.183 37.222C325.991 37.222 327.989 36.016 329.177 33.604H337.331C336.467 36.484 334.811 38.86 332.363 40.732C329.915 42.568 326.909 43.486 323.345 43.486C320.465 43.486 317.873 42.856 315.569 41.596C313.301 40.3 311.519 38.482 310.223 36.142C308.963 33.802 308.333 31.102 308.333 28.042C308.333 24.946 308.963 22.228 310.223 19.888C311.483 17.548 313.247 15.748 315.515 14.488C317.783 13.228 320.393 12.598 323.345 12.598C326.189 12.598 328.727 13.21 330.959 14.434C333.227 15.658 334.973 17.404 336.197 19.672C337.457 21.904 338.087 24.478 338.087 27.394ZM330.257 25.234C330.221 23.29 329.519 21.742 328.151 20.59C326.783 19.402 325.109 18.808 323.129 18.808C321.257 18.808 319.673 19.384 318.377 20.536C317.117 21.652 316.343 23.218 316.055 25.234H330.257ZM341.661 27.934C341.661 24.91 342.255 22.228 343.443 19.888C344.667 17.548 346.305 15.748 348.357 14.488C350.445 13.228 352.767 12.598 355.323 12.598C357.555 12.598 359.499 13.048 361.155 13.948C362.847 14.848 364.197 15.982 365.205 17.35V13.084H372.819V43H365.205V38.626C364.233 40.03 362.883 41.2 361.155 42.136C359.463 43.036 357.501 43.486 355.269 43.486C352.749 43.486 350.445 42.838 348.357 41.542C346.305 40.246 344.667 38.428 343.443 36.088C342.255 33.712 341.661 30.994 341.661 27.934ZM365.205 28.042C365.205 26.206 364.845 24.64 364.125 23.344C363.405 22.012 362.433 21.004 361.209 20.32C359.985 19.6 358.671 19.24 357.267 19.24C355.863 19.24 354.567 19.582 353.379 20.266C352.191 20.95 351.219 21.958 350.463 23.29C349.743 24.586 349.383 26.134 349.383 27.934C349.383 29.734 349.743 31.318 350.463 32.686C351.219 34.018 352.191 35.044 353.379 35.764C354.603 36.484 355.899 36.844 357.267 36.844C358.671 36.844 359.985 36.502 361.209 35.818C362.433 35.098 363.405 34.09 364.125 32.794C364.845 31.462 365.205 29.878 365.205 28.042ZM417.355 12.652C421.027 12.652 423.979 13.786 426.211 16.054C428.479 18.286 429.613 21.418 429.613 25.45V43H422.053V26.476C422.053 24.136 421.459 22.354 420.271 21.13C419.083 19.87 417.463 19.24 415.411 19.24C413.359 19.24 411.721 19.87 410.497 21.13C409.309 22.354 408.715 24.136 408.715 26.476V43H401.155V26.476C401.155 24.136 400.561 22.354 399.373 21.13C398.185 19.87 396.565 19.24 394.513 19.24C392.425 19.24 390.769 19.87 389.545 21.13C388.357 22.354 387.763 24.136 387.763 26.476V43H380.203V13.084H387.763V16.702C388.735 15.442 389.977 14.452 391.489 13.732C393.037 13.012 394.729 12.652 396.565 12.652C398.905 12.652 400.993 13.156 402.829 14.164C404.665 15.136 406.087 16.54 407.095 18.376C408.067 16.648 409.471 15.262 411.307 14.218C413.179 13.174 415.195 12.652 417.355 12.652ZM444.347 3.04V43H436.787V3.04H444.347ZM455.65 9.52C454.318 9.52 453.202 9.106 452.302 8.278C451.438 7.414 451.006 6.352 451.006 5.092C451.006 3.832 451.438 2.788 452.302 1.96C453.202 1.096 454.318 0.663998 455.65 0.663998C456.982 0.663998 458.08 1.096 458.944 1.96C459.844 2.788 460.294 3.832 460.294 5.092C460.294 6.352 459.844 7.414 458.944 8.278C458.08 9.106 456.982 9.52 455.65 9.52ZM459.376 13.084V43H451.816V13.084H459.376ZM483.423 12.652C486.987 12.652 489.867 13.786 492.063 16.054C494.259 18.286 495.357 21.418 495.357 25.45V43H487.797V26.476C487.797 24.1 487.203 22.282 486.015 21.022C484.827 19.726 483.207 19.078 481.155 19.078C479.067 19.078 477.411 19.726 476.187 21.022C474.999 22.282 474.405 24.1 474.405 26.476V43H466.845V13.084H474.405V16.81C475.413 15.514 476.691 14.506 478.239 13.786C479.823 13.03 481.551 12.652 483.423 12.652ZM530.356 27.394C530.356 28.474 530.284 29.446 530.14 30.31H508.27C508.45 32.47 509.206 34.162 510.538 35.386C511.87 36.61 513.508 37.222 515.452 37.222C518.26 37.222 520.258 36.016 521.446 33.604H529.6C528.736 36.484 527.08 38.86 524.632 40.732C522.184 42.568 519.178 43.486 515.614 43.486C512.734 43.486 510.142 42.856 507.838 41.596C505.57 40.3 503.788 38.482 502.492 36.142C501.232 33.802 500.602 31.102 500.602 28.042C500.602 24.946 501.232 22.228 502.492 19.888C503.752 17.548 505.516 15.748 507.784 14.488C510.052 13.228 512.662 12.598 515.614 12.598C518.458 12.598 520.996 13.21 523.228 14.434C525.496 15.658 527.242 17.404 528.466 19.672C529.726 21.904 530.356 24.478 530.356 27.394ZM522.526 25.234C522.49 23.29 521.788 21.742 520.42 20.59C519.052 19.402 517.378 18.808 515.398 18.808C513.526 18.808 511.942 19.384 510.646 20.536C509.386 21.652 508.612 23.218 508.324 25.234H522.526Z" fill="#F44336"/>
</svg>
